<svg xmlns="http://www.w3.org/2000/svg" width="24" height="24" fill="white" viewBox="0 0 24 24">
  <path d="M23.77 15.28c-.31-.76-1.27-1.22-2.03-.93-1.26.48-2.62.65-4.01.65H9v2h7.26c1.82 0 3.62-.19 5.27-.75.59-.2 1.23-.38 1.57-1.2l.14-.33c.16-.37.17-.77.03-1.14zm-11-4.26c-1.35 0-2.68-.17-4-.65-.76-.29-1.72.17-2.03.93l-.13.33c-.15.37-.14.77.02 1.14.34.81.98 1 1.56 1.2 1.65.56 3.46.75 5.28.75H15v-2H7.98c-1.41 0-2.76-.18-4.02-.65-.76-.29-1.72.17-2.03.93l-.14.33c-.15.37-.15.77 0 1.14.34.81.98 1 1.56 1.2 1.65.56 3.46.75 5.28.75H9v2h5.74c1.82 0 3.62-.19 5.27-.75.59-.2 1.23-.38 1.57-1.2l.14-.33c.16-.37.17-.77.03-1.14l-.14-.33zM4.23 9.44c.31-.76 1.27-1.22 2.03-.93C8.62 9.23 10.35 9.5 12 9.5h7V7.5H9.74C7.92 7.5 6.12 7.31 4.47 6.75c-.59-.2-1.23-.38-1.57-1.2L2.76 5.22C2.6 4.85 2.6 4.45 2.74 4.08l.14-.33c.34-.81.98-1 1.56-1.2C6.09 2.56 7.9 2.37 9.74 2.37H15v2H12.74c-1.82 0-3.62.19-5.27.75-.59.2-1.23.38-1.57 1.2l-.14.33c-.16.37-.17.77-.03 1.14l.14.33z"/>
</svg>